{"glyphs":{":":{"x_min":0,"x_max":294,"ha":294,"o":"m 154 221 b 120 221 87 194 82 161 b 76 129 100 102 134 102 b 169 102 201 129 206 161 b 212 194 189 221 154 221 z m 193 396 b 159 396 127 369 121 336 b 116 304 139 277 173 277 b 208 277 240 304 246 336 b 251 369 228 396 193 396 z"},"$":{"x_min":0,"x_max":659,"ha":659,"o":"m 277 -123 b 468 -115 650 18 568 213 b 536 287 461 332 385 371 l 446 650 b 548 617 589 541 530 432 b 527 415 549 409 561 415 b 633 546 580 646 454 685 l 468 751 b 444 775 388 803 359 724 b 358 717 356 709 354 701 b 212 704 94 618 77 520 b 56 402 161 351 267 299 l 184 -80 b -40 -41 13 218 191 252 b 206 259 203 286 184 287 b -33 246 -85 -68 176 -115 l 154 -214 b 191 -234 237 -240 262 -192 z m 287 -80 b 308 18 333 134 359 250 b 396 227 427 201 445 167 b 514 40 415 -59 287 -80 z m 293 419 b 233 452 188 488 188 541 b 189 602 257 653 346 661 z"},"?":{"x_min":0,"x_max":760,"ha":760,"o":"m 165 378 b 180 368 200 384 196 398 b 88 564 163 751 368 748 b 457 746 537 689 527 560 b 505 261 135 237 95 -79 b 101 -128 211 -109 217 -94 b 267 246 613 268 653 552 b 677 723 520 799 368 786 b 127 765 40 573 165 378 z m 153 -137 b 127 -137 103 -157 98 -182 b 94 -207 112 -227 138 -227 b 164 -227 188 -207 192 -182 b 197 -157 179 -137 153 -137 z"},"<":{"x_min":0,"x_max":581,"ha":581,"o":"m 537 442 b 549 452 543 473 523 475 l 39 238 l 381 -77 b 450 -125 480 -70 486 -37 l 166 257 z"},"'":{"x_min":0,"x_max":275,"ha":275,"o":"m 224 770 b 204 809 175 800 148 776 l 72 571 b 69 529 112 520 136 531 z"},"=":{"x_min":0,"x_max":662,"ha":662,"o":"m 94 194 b 42 179 38 127 49 87 l 490 87 b 573 98 558 165 540 194 z m 141 424 b 89 410 85 358 96 318 l 537 318 b 620 329 605 395 587 424 z"},"a":{"x_min":0,"x_max":467,"ha":467,"o":"m 476 113 b 459 81 434 38 393 37 b 307 34 410 310 423 347 b 425 407 314 412 297 365 b 292 350 288 335 284 321 b 268 360 237 386 186 388 b -20 396 -87 1 118 1 b 177 1 226 46 258 104 b 274 5 348 0 380 0 b 451 0 479 40 508 97 b 509 113 490 124 476 113 z m 159 46 b 73 18 131 371 220 344 b 312 304 241 77 159 46 z"},"L":{"x_min":0,"x_max":579,"ha":579,"o":"m 413 740 b 551 715 338 180 291 65 b -24 137 -98 -223 143 -227 b 243 -220 308 -163 358 -79 b 563 -174 716 -334 991 -139 b 1001 -127 998 -108 973 -108 b 746 -216 592 -63 408 23 b 478 192 725 787 407 776 b 270 777 194 530 371 453 b 391 448 402 475 386 486 b 244 547 306 745 413 740 z m 111 -185 b -19 -159 21 22 246 -37 b 200 -131 153 -193 111 -185 z"},"3":{"x_min":0,"x_max":746,"ha":746,"o":"m 134 443 b 143 426 166 434 170 445 b 162 576 248 742 397 742 b 475 742 531 676 531 588 b 531 475 481 368 368 331 b 357 316 362 301 373 296 b 465 291 505 232 510 144 b 519 -26 326 -217 156 -177 b -39 -108 21 205 211 221 b 227 230 222 252 208 257 b -46 236 -99 -215 230 -226 b 432 -232 643 -68 634 145 b 629 244 567 308 472 327 b 572 374 657 476 655 591 b 654 719 547 778 431 781 b 241 787 123 625 134 443 z"},";":{"x_min":0,"x_max":361,"ha":361,"o":"m 162 221 b 128 223 94 198 86 166 b 79 134 101 106 135 104 b 156 105 95 35 119 24 b 132 20 195 79 212 149 b 220 181 197 219 162 221 z m 207 396 b 172 396 140 369 134 336 b 129 304 152 277 187 277 b 221 277 254 304 259 336 b 265 369 241 396 207 396 z"},"J":{"x_min":0,"x_max":667,"ha":667,"o":"m 522 5 b 579 179 800 758 512 767 b 375 774 288 529 463 445 b 482 440 494 466 478 478 b 339 545 409 740 516 731 b 630 715 426 85 383 -8 b 334 -13 270 -23 208 -40 b -70 -121 -47 -367 146 -367 b 336 -367 443 -187 507 -32 b 647 -16 682 46 708 97 b 709 112 690 123 676 113 b 659 80 625 19 522 5 z m 109 -319 b -16 -312 19 -134 211 -77 b 267 -60 325 -51 366 -46 b 325 -135 220 -326 109 -319 z"},"V":{"x_min":0,"x_max":747,"ha":747,"o":"m 151 -225 b 473 -222 820 456 839 828 b 806 880 710 856 722 804 b 726 559 445 -204 169 -189 b 85 -175 271 270 289 330 b 334 485 419 777 155 776 b 12 776 -78 528 95 453 b 114 448 125 475 109 486 b -32 547 57 740 151 740 b 291 740 188 427 169 362 b 141 262 -53 -230 151 -225 z"},"\"":{"x_min":0,"x_max":364,"ha":364,"o":"m 310 770 b 290 809 261 800 234 776 l 158 571 b 155 529 198 520 222 531 z m 174 770 b 154 809 125 800 98 776 l 22 571 b 19 529 62 520 86 531 z"},"7":{"x_min":0,"x_max":646,"ha":646,"o":"m 124 -203 b 154 220 308 465 607 743 b 616 755 609 774 590 774 b 472 743 195 689 104 783 b 62 782 6 712 48 676 b 123 615 307 640 401 662 b 155 455 4 133 0 -188 b -4 -230 96 -245 124 -203 z"},"S":{"x_min":0,"x_max":816,"ha":816,"o":"m 330 752 b 338 768 321 785 301 774 b 237 685 281 595 397 566 b 448 440 609 425 605 229 b 602 47 417 -214 222 -182 b -44 -117 -19 344 263 354 b 374 359 478 282 442 161 b 440 146 466 135 477 151 b 521 301 393 396 258 390 b -95 375 -93 -243 309 -225 b 536 -215 722 4 730 225 b 737 417 616 452 491 555 b 725 554 733 779 567 777 b 476 775 389 709 389 606 b 306 632 289 699 330 752 z m 455 593 b 424 649 490 743 568 743 b 695 744 670 572 455 593 z"},"}":{"x_min":0,"x_max":436,"ha":436,"o":"m 296 283 b 105 216 191 -206 17 -209 b 3 -214 2 -239 17 -245 b 320 -245 261 234 365 259 b 383 268 379 284 369 292 b 268 349 558 769 236 795 b 219 787 220 765 232 759 b 390 739 138 338 296 283 z"},"Z":{"x_min":0,"x_max":820,"ha":820,"o":"m 311 592 b 310 607 286 614 276 595 b 267 501 210 456 160 453 b 38 448 45 653 242 704 b 353 732 499 716 620 700 b 488 615 378 502 264 394 b 228 360 295 316 324 326 b 860 491 522 -409 169 -336 b -93 -258 53 287 416 126 b 433 124 446 146 431 159 b -14 355 -173 -381 237 -381 b 729 -381 965 558 404 393 b 506 492 611 603 726 685 b 933 659 943 777 839 780 b 789 782 733 763 677 733 b 543 755 389 788 256 784 b -10 775 -25 406 157 417 b 227 421 302 485 311 592 z m 776 718 b 800 731 822 740 841 743 b 890 749 862 707 776 718 z"},"x":{"x_min":0,"x_max":370,"ha":370,"o":"m 188 381 b 133 420 65 412 62 365 l 62 341 b 62 256 28 141 0 97 b -5 78 21 71 33 82 b 52 116 71 165 84 217 b 93 174 106 134 123 102 b 96 62 72 30 58 14 b 45 3 67 -17 91 -13 b 106 9 125 37 146 66 b 178 25 222 1 284 0 b 354 0 384 42 411 97 b 413 115 390 123 379 113 b 360 77 336 39 297 37 b 255 34 227 79 209 160 b 266 244 320 326 337 360 b 346 375 313 388 298 387 b 280 351 241 286 199 219 b 193 266 189 320 188 381 z"},")":{"x_min":0,"x_max":456,"ha":456,"o":"m 6 -210 b -7 -218 -6 -237 11 -245 b 325 -204 569 675 231 792 b 213 792 206 773 215 760 b 387 646 173 -183 6 -210 z"},"&":{"x_min":0,"x_max":935,"ha":935,"o":"m 676 240 b 661 252 642 239 644 224 b 662 188 672 154 675 122 b 634 127 585 125 528 115 b 510 102 518 81 534 80 b 590 90 637 91 676 86 b 672 15 635 -45 582 -90 b 481 40 410 256 396 417 b 469 440 571 500 589 611 b 602 692 555 778 458 774 b 275 766 256 546 269 405 b -88 231 -97 -198 286 -221 b 370 -226 459 -205 533 -166 b 588 -211 648 -237 713 -237 b 880 -235 940 58 712 115 b 709 154 698 196 676 240 z m 277 347 b 304 180 382 -19 505 -140 b 465 -159 422 -173 379 -180 b 86 -206 50 166 277 347 z m 605 -117 b 665 -67 706 -1 712 78 b 885 28 836 -193 728 -189 b 683 -188 638 -153 605 -117 z m 503 730 b 544 712 561 663 554 619 b 538 527 447 480 394 455 b 391 532 405 745 503 730 z"},"_":{"x_min":0,"x_max":967,"ha":967,"o":"m 119 100 b 67 86 63 39 74 -1 l 824 -1 b 906 10 892 71 873 100 l 119 100 z"},"v":{"x_min":0,"x_max":409,"ha":409,"o":"m 163 347 b 166 407 55 412 37 365 b -77 12 71 0 121 0 b 202 0 278 127 310 187 b 341 167 383 156 437 162 b 453 168 451 195 433 198 b 386 193 351 203 326 220 b 337 245 345 270 350 292 b 378 427 221 430 237 301 b 242 267 257 235 281 210 b 239 125 171 41 133 37 b 48 36 150 310 163 347 z m 298 246 b 284 263 276 284 273 306 b 264 378 332 380 315 300 b 312 283 306 265 298 246 z"},"O":{"x_min":0,"x_max":732,"ha":732,"o":"m 111 486 b 61 414 22 323 -1 236 b -49 48 -26 -162 200 -203 b 618 -281 940 705 421 784 b 222 815 -3 659 111 486 z m 318 547 b 363 595 271 626 231 596 b 210 589 190 574 170 556 b 172 679 312 762 427 743 b 879 675 574 -240 227 -165 b 81 -129 95 100 123 211 b 140 284 170 357 205 416 b 339 362 480 424 487 579 b 483 592 459 599 451 581 b 446 463 333 396 229 455 b 258 497 289 529 318 547 z"},"(":{"x_min":0,"x_max":394,"ha":394,"o":"m 452 757 b 465 765 464 784 447 792 b 133 751 -111 -128 227 -245 b 245 -245 252 -226 243 -213 b 71 -99 285 730 452 757 z"},"C":{"x_min":0,"x_max":616,"ha":616,"o":"m 657 97 b 659 112 639 124 625 113 b 564 -1 433 -185 292 -183 b -48 -177 180 744 479 744 b 689 744 662 463 436 500 b 417 495 413 472 431 465 b 711 419 748 791 452 782 b 4 767 -192 -221 245 -226 b 440 -228 575 -61 657 97 z"},"W":{"x_min":0,"x_max":1182,"ha":1182,"o":"m 169 362 b 144 273 -10 -223 194 -223 b 328 -218 442 -78 527 86 l 506 13 b 483 -115 490 -228 588 -225 b 909 -222 1256 456 1276 828 b 1242 880 1147 856 1158 804 b 1162 559 882 -204 605 -189 b 524 -175 757 395 772 538 b 771 576 701 609 651 538 l 639 481 b 581 265 411 -159 210 -190 b 136 -176 206 43 289 330 b 334 485 419 777 155 776 b 12 776 -78 528 95 453 b 114 448 125 475 109 486 b -32 547 57 740 151 740 b 291 740 188 427 169 362 z"},"A":{"x_min":0,"x_max":911,"ha":911,"o":"m 380 508 b 385 493 409 492 416 506 b 423 642 520 751 665 744 b 856 733 704 357 682 232 l 481 221 b 521 349 591 647 705 701 b 700 714 694 736 674 729 b 489 665 404 379 348 215 b -31 196 -94 -210 128 -215 b 331 -221 417 27 469 185 l 676 196 b 647 -5 686 -174 935 -223 b 958 -228 957 -211 963 -192 b 786 -108 775 43 803 203 l 983 212 b 997 222 997 240 980 248 l 810 239 b 847 421 989 763 685 779 b 509 788 389 683 380 508 z m 96 -173 b -42 -120 81 171 335 178 b 303 85 208 -196 96 -173 z"},"f":{"x_min":0,"x_max":234,"ha":234,"o":"m 322 776 b 209 779 122 561 54 320 b -37 -4 -99 -378 84 -379 b 226 -374 197 -108 106 -29 b 185 -14 238 22 275 97 b 276 112 258 124 243 113 b 212 51 169 21 102 7 b 126 128 159 241 192 359 b 236 405 533 761 322 776 z m 348 731 b 414 721 279 497 211 424 b 227 481 296 738 348 731 z m 90 -63 b 145 -120 173 -332 104 -332 b 49 -332 82 -113 90 -63 z"},"Q":{"x_min":0,"x_max":715,"ha":715,"o":"m 97 448 b -20 234 10 -48 287 -53 b 688 -78 877 765 370 780 b 169 787 -37 607 97 448 z m 296 532 b 334 585 239 605 202 572 b 183 562 165 545 147 524 b 136 646 264 745 380 741 b 809 728 638 -53 310 -13 b 128 9 133 241 198 389 b 337 352 470 430 459 584 b 453 597 429 601 424 582 b 432 464 327 385 218 431 b 241 476 268 512 296 532 z m 1 -196 b -6 -215 21 -226 33 -213 b 171 -9 600 -422 752 -94 b 756 -80 741 -63 721 -76 b 588 -264 148 143 1 -196 z"},"w":{"x_min":0,"x_max":628,"ha":628,"o":"m 382 347 b 385 407 273 412 256 365 b 218 247 209 167 216 113 b 200 80 175 38 134 37 b 47 34 150 310 163 347 b 166 407 54 412 37 365 b -77 12 71 0 121 0 b 176 0 205 25 229 63 b 256 3 312 0 339 0 b 421 0 497 127 528 187 b 560 167 602 156 656 162 b 671 168 670 195 652 198 b 605 193 570 203 544 220 b 555 245 564 270 569 292 b 597 427 440 430 456 301 b 460 267 476 235 500 210 b 457 125 390 41 352 37 b 267 36 369 310 382 347 z m 516 246 b 503 263 494 284 492 306 b 482 378 550 380 534 300 b 530 283 524 265 516 246 z"},"-":{"x_min":0,"x_max":628,"ha":628,"o":"m 165 307 b 113 293 109 241 120 201 l 487 201 b 569 212 555 279 536 307 z"},"E":{"x_min":0,"x_max":575,"ha":575,"o":"m 616 97 b 618 111 599 125 584 113 b 523 0 392 -185 251 -183 b 175 -181 123 -116 125 -42 b 126 55 182 150 286 160 b 295 174 290 196 273 197 b 159 212 133 321 146 420 b 168 581 328 777 488 737 b 645 690 597 467 395 500 b 376 495 372 472 390 465 b 670 419 707 791 411 782 b 222 776 54 621 23 435 b 2 313 53 206 175 172 b 85 138 5 65 0 -36 b -6 -156 95 -225 204 -226 b 399 -228 534 -61 616 97 z"},"s":{"x_min":0,"x_max":345,"ha":345,"o":"m 0 97 b -2 23 45 -9 93 -11 b 169 -15 321 -33 386 97 b 388 112 368 124 354 113 b 327 58 278 29 218 22 b 258 47 287 89 282 154 b 275 240 196 277 142 312 b 217 475 70 463 62 376 b 60 349 68 321 85 291 b 57 224 39 175 22 141 b 8 137 -2 118 0 97 z m 57 131 b 69 156 97 235 107 256 b 128 221 144 179 150 143 b 158 104 146 22 94 19 b 59 17 31 46 36 88 b 55 96 59 119 57 131 z"},">":{"x_min":0,"x_max":656,"ha":656,"o":"m 441 93 l 70 -92 b 58 -102 64 -123 84 -125 l 568 112 l 226 427 b 157 475 127 420 121 387 z"},"l":{"x_min":0,"x_max":194,"ha":194,"o":"m 121 37 b 48 35 135 296 152 359 b 196 405 493 761 282 776 b 129 781 -174 -3 108 0 b 178 1 206 40 235 97 b 237 110 219 125 203 113 b 188 85 162 38 121 37 z m 308 731 b 374 721 239 497 171 424 b 187 481 257 738 308 731 z"},"8":{"x_min":0,"x_max":697,"ha":697,"o":"m 447 351 b 689 483 657 761 370 784 b 240 794 128 740 98 637 b 54 487 169 389 282 316 b -87 162 -100 -231 282 -227 b 487 -229 624 -107 622 48 b 622 144 569 252 447 351 z m 280 -191 b -70 -191 -36 146 318 292 b 429 224 492 126 505 44 b 524 -83 435 -189 280 -191 z m 414 374 b 342 423 168 542 180 644 b 189 715 282 754 367 748 b 639 727 628 484 414 374 z"},"\\":{"x_min":0,"x_max":621,"ha":621,"o":"m 440 -217 b 473 -260 517 -247 550 -221 l 167 740 b 126 813 75 776 55 749 l 440 -217 z"},"e":{"x_min":0,"x_max":281,"ha":281,"o":"m 113 155 b 164 190 227 245 241 308 b 249 347 230 388 185 390 b -17 400 -124 -13 172 0 b 240 3 291 35 322 97 b 324 110 306 125 290 113 b 272 74 221 39 180 37 b 130 33 112 89 113 155 z m 203 311 b 186 267 157 232 117 202 b 129 276 160 345 197 343 b 212 342 206 320 203 311 z"},"b":{"x_min":0,"x_max":499,"ha":499,"o":"m 312 393 b 266 393 217 364 184 323 l 195 359 b 239 405 536 761 325 776 b 145 782 30 209 -12 48 b -14 -12 90 -15 107 32 b 131 107 179 341 285 344 b 347 346 288 147 258 108 b 243 114 229 118 215 120 b 116 133 96 -2 208 -1 b 256 0 296 16 329 40 b 406 9 490 -6 540 97 b 541 114 521 123 508 113 b 471 38 415 48 359 68 b 451 159 473 395 312 393 z m 350 731 b 416 721 282 497 213 424 b 230 481 299 738 350 731 z m 175 44 b 153 62 179 88 210 84 b 218 83 226 81 235 78 b 217 58 196 36 175 44 z"},"%":{"x_min":0,"x_max":785,"ha":785,"o":"m 149 790 b 133 793 116 776 124 764 l 133 755 b -33 713 -39 499 91 493 b 205 489 248 627 202 719 b 251 732 378 695 464 700 b 368 467 199 48 106 -181 b 139 -206 183 -220 216 -177 b 311 56 484 485 579 717 b 578 768 542 771 508 755 b 493 709 239 763 175 761 b 168 771 159 780 149 790 z m 541 79 b 334 78 311 -236 496 -232 b 671 -229 719 80 541 79 z m 572 38 b 658 4 612 -160 529 -190 b 458 -189 484 33 572 38 z m 169 705 b 198 648 191 571 129 538 b 75 545 125 697 169 705 z"},"m":{"x_min":0,"x_max":766,"ha":766,"o":"m 561 360 b 631 369 419 2 680 0 b 749 -1 778 40 807 97 b 809 110 791 125 775 113 b 759 83 734 38 693 37 b 580 44 822 400 574 397 b 502 396 457 358 427 315 b 424 363 397 398 321 397 b 262 396 222 371 192 338 l 195 347 b 198 407 83 412 66 365 b 55 315 11 140 -13 48 b -15 -12 89 -15 106 32 b 126 94 142 153 157 210 b 173 243 230 354 308 360 b 354 366 258 165 248 63 b 238 -28 350 -25 364 52 b 369 70 389 134 411 213 b 429 248 485 354 561 360 z"},"#":{"x_min":0,"x_max":1010,"ha":1010,"o":"m 403 -133 b 399 -187 442 -206 483 -208 b 518 -107 564 26 613 164 b 673 164 732 165 793 165 b 876 177 861 238 842 267 l 649 266 b 666 312 681 358 697 403 b 761 403 824 404 884 404 b 967 416 952 477 933 506 l 733 505 l 796 682 b 813 764 750 770 717 762 l 626 504 l 470 503 l 533 682 b 550 764 487 770 454 762 l 363 503 l 142 502 b 90 487 86 440 98 401 b 172 401 249 402 328 402 l 279 264 l 92 263 b 40 248 36 201 48 162 b 113 162 179 163 244 163 l 140 -133 b 136 -187 179 -206 220 -208 b 255 -107 301 26 350 164 l 507 164 z m 434 403 l 591 403 l 542 265 l 386 264 z"},",":{"x_min":0,"x_max":246,"ha":246,"o":"m 113 119 b 79 121 45 96 37 64 b 30 32 52 4 86 2 b 107 3 46 -67 70 -78 b 83 -82 146 -23 163 47 b 171 79 148 117 113 119 z"},"n":{"x_min":0,"x_max":497,"ha":497,"o":"m 308 360 b 378 369 150 4 411 0 b 480 -1 509 40 538 97 b 540 113 520 124 506 113 b 490 83 465 38 424 37 b 320 34 568 400 321 397 b 262 396 222 371 192 338 l 195 347 b 198 407 83 412 66 365 b 55 315 11 140 -13 48 b -15 -12 89 -15 106 32 b 126 94 142 153 157 210 b 173 243 230 354 308 360 z"},"h":{"x_min":0,"x_max":498,"ha":498,"o":"m 309 360 b 379 369 151 4 412 0 b 481 -1 510 40 539 97 b 541 112 521 124 507 113 b 491 83 466 38 425 37 b 321 34 569 400 322 397 b 263 396 211 363 184 323 l 195 359 b 239 405 536 761 325 776 b 145 782 30 209 -12 48 b -14 -12 90 -15 107 32 b 127 94 143 153 158 210 b 174 243 231 354 309 360 z m 350 731 b 416 721 282 497 213 424 b 230 481 299 738 350 731 z"},"z":{"x_min":0,"x_max":419,"ha":419,"o":"m 0 97 b -5 78 20 71 33 82 b 70 149 112 253 117 329 b 332 375 175 86 97 45 b 77 35 81 17 87 3 b 122 4 155 -12 176 -39 b 82 -66 -63 -126 -75 -239 b -84 -312 -29 -380 72 -380 b 232 -380 388 -182 307 -38 b 379 -12 426 27 460 97 b 461 112 440 125 428 113 b 397 52 352 14 284 -8 b 255 20 216 34 177 39 b 379 147 460 450 116 366 b 110 392 92 407 65 404 b -11 393 -3 323 81 325 b 73 255 34 156 0 97 z m 43 -340 b -13 -333 -44 -291 -37 -240 b -23 -141 113 -94 195 -71 b 234 -164 153 -341 43 -340 z m 80 361 b 69 360 57 362 53 364 b 54 369 77 373 80 361 z"},"B":{"x_min":0,"x_max":959,"ha":959,"o":"m 112 -173 b -27 -121 21 184 287 175 b 308 177 306 211 287 211 b -66 211 -68 -212 144 -215 b 212 -217 269 -193 314 -150 b 345 -200 407 -234 501 -222 b 849 -178 1038 413 687 456 b 906 570 843 786 574 777 b 488 774 402 739 354 665 b 317 608 310 536 342 475 b 356 462 377 478 374 492 b 348 541 354 599 384 645 b 419 699 502 740 566 739 b 752 739 720 494 576 454 b 558 449 569 428 571 416 b 924 455 685 -182 447 -186 b 395 -187 358 -160 340 -123 l 352 -109 b 384 -68 410 -11 431 54 b 452 59 475 61 502 59 b 523 66 519 91 504 95 b 482 96 462 95 444 92 b 511 318 538 612 628 655 b 645 667 634 688 616 689 b 307 610 377 -217 112 -173 z"},"K":{"x_min":0,"x_max":827,"ha":827,"o":"m 413 740 b 510 723 441 484 357 243 b 279 19 188 -199 110 -185 b -29 -133 23 184 289 175 b 311 177 308 211 289 211 b -63 211 -70 -224 142 -227 b 362 -211 436 89 496 264 b 706 226 405 -233 851 -226 b 865 -219 866 -198 851 -190 b 621 -186 806 241 576 301 b 727 354 883 437 976 722 b 985 802 874 800 860 766 b 815 548 722 403 514 319 b 589 559 607 783 407 776 b 270 777 193 530 371 453 b 390 448 402 475 385 486 b 244 547 305 745 413 740 z"},"R":{"x_min":0,"x_max":943,"ha":943,"o":"m 572 157 b 610 153 651 166 687 178 b 742 24 658 -259 1010 -223 b 1027 -216 1027 -191 1008 -187 b 797 -194 877 73 773 217 b 1070 386 1058 787 644 784 b 433 783 221 619 331 402 b 346 393 366 403 362 420 b 269 609 463 748 645 749 b 896 750 919 427 720 268 b 522 393 418 177 572 157 z m 112 -184 b -27 -132 21 173 287 164 b 308 166 306 200 287 200 b -66 200 -68 -222 144 -226 b 233 -228 300 -187 352 -120 b 412 -44 448 86 470 180 b 520 385 551 607 628 644 b 645 656 634 678 616 678 b 307 599 377 -228 112 -184 z m 659 228 b 630 213 602 203 569 206 b 478 216 575 327 659 228 z"},"T":{"x_min":0,"x_max":567,"ha":567,"o":"m 111 -186 b -28 -134 22 184 288 175 b 310 177 307 211 288 211 b -64 211 -69 -225 143 -228 b 534 -239 454 551 618 631 b 635 642 625 664 606 664 b 297 585 376 -230 111 -186 z m 993 810 b 945 679 247 983 230 527 b 236 507 259 514 266 525 b 294 842 907 506 1024 791 b 1027 805 1000 814 993 810 z"},"P":{"x_min":0,"x_max":958,"ha":958,"o":"m 112 -184 b -27 -132 21 173 287 164 b 308 166 306 200 287 200 b -66 200 -68 -222 144 -226 b 233 -228 300 -187 352 -120 b 401 -58 434 39 461 144 b 1046 134 1171 788 644 784 b 433 783 221 619 331 402 b 346 393 366 403 362 420 b 269 609 463 748 645 749 b 973 750 912 196 470 180 b 520 385 551 607 628 644 b 645 656 634 678 616 678 b 307 599 377 -228 112 -184 z"},"|":{"x_min":0,"x_max":364,"ha":364,"o":"m 54 -202 b 60 -256 105 -267 146 -262 b 185 -15 258 463 297 710 b 299 793 237 788 206 775 b 166 527 94 46 54 -202 z"},"t":{"x_min":0,"x_max":205,"ha":205,"o":"m 233 590 b 234 639 132 657 107 604 b 85 543 64 475 47 406 b 24 406 3 406 -13 407 b -40 408 -33 393 -33 372 b -17 371 9 370 38 370 b -7 223 -55 -1 119 0 b 189 0 217 40 246 97 b 248 110 230 125 214 113 b 198 83 173 38 132 37 b 65 41 122 217 167 378 b 199 384 227 394 243 410 b 263 429 236 436 222 441 b 218 428 201 420 178 415 b 200 489 221 555 233 590 z"},"M":{"x_min":0,"x_max":1153,"ha":1153,"o":"m 413 740 b 510 723 441 484 357 243 b 279 19 188 -199 111 -185 b -29 -133 23 184 289 175 b 311 177 308 211 289 211 b -61 211 -72 -224 142 -227 b 233 -221 293 -174 341 -104 b 516 145 629 505 779 690 b 826 721 704 376 659 246 b 632 171 741 159 771 198 b 861 356 956 553 1070 691 b 1144 754 979 353 940 220 b 892 53 803 -191 1062 -227 b 1080 -224 1082 -201 1070 -192 b 944 -153 1034 99 1060 188 b 1090 293 1282 780 1131 776 b 1066 774 930 554 835 388 b 859 463 963 776 844 773 b 731 771 603 434 459 159 b 466 180 473 200 481 221 b 580 494 634 784 407 776 b 270 777 193 530 371 453 b 390 448 402 475 385 486 b 244 547 306 745 413 740 z"},"g":{"x_min":0,"x_max":468,"ha":468,"o":"m 509 97 b 511 110 494 125 477 113 b 449 56 394 21 328 -6 b 374 140 407 288 422 348 b 424 408 318 411 300 364 l 287 314 b 272 356 240 386 186 388 b -20 396 -87 1 118 1 b 155 1 188 19 216 47 b 207 14 197 -20 187 -52 b 96 -92 34 -164 8 -231 b -23 -309 0 -380 75 -380 b 214 -380 285 -134 314 -50 b 407 -18 473 20 509 97 z m 159 46 b 73 18 131 371 220 344 b 312 304 241 77 159 46 z m 174 -96 b 132 -230 89 -339 59 -335 b 23 -329 35 -264 43 -241 b 62 -190 106 -131 174 -96 z"},"j":{"x_min":0,"x_max":238,"ha":238,"o":"m 279 97 b 281 110 264 125 247 113 b 220 58 164 21 98 -6 b 145 140 177 288 192 348 b 194 408 88 411 71 364 b 60 330 11 126 -42 -52 b -134 -92 -196 -164 -222 -231 b -252 -309 -230 -380 -155 -380 b -16 -380 55 -134 84 -50 b 177 -18 240 17 279 97 z m -56 -96 b -98 -230 -141 -339 -171 -335 b -207 -329 -195 -264 -187 -241 b -168 -190 -124 -131 -56 -96 z m 164 541 b 135 541 109 519 106 492 b 102 465 122 443 150 443 b 178 443 204 465 208 492 b 212 519 192 541 164 541 z"},"i":{"x_min":0,"x_max":207,"ha":207,"o":"m 164 347 b 166 407 55 412 37 365 b -77 12 71 0 121 0 b 191 0 219 40 248 97 b 250 112 230 124 216 113 b 200 83 175 38 134 37 b 47 34 150 310 164 347 z m 142 541 b 113 541 87 519 84 492 b 80 465 100 443 128 443 b 157 443 182 465 186 492 b 190 519 170 541 142 541 z"},"y":{"x_min":0,"x_max":477,"ha":477,"o":"m 518 97 b 520 110 503 125 486 113 b 447 36 405 22 337 -6 b 383 140 415 288 430 348 b 433 408 326 411 309 364 b 294 298 241 50 134 37 b 47 34 150 310 163 347 b 166 407 54 412 37 365 b -77 12 71 -1 121 0 b 157 0 196 22 227 55 b 217 19 207 -17 196 -52 b 104 -92 43 -164 17 -231 b -14 -309 9 -380 84 -380 b 222 -380 294 -134 322 -50 b 422 -13 478 12 518 97 z m 183 -96 b 141 -230 97 -339 67 -335 b 32 -329 43 -264 52 -241 b 70 -190 115 -131 183 -96 z"},"@":{"x_min":0,"x_max":1053,"ha":1053,"o":"m 716 721 b 882 692 955 563 930 404 b 910 271 827 138 735 142 b 649 147 771 414 787 450 b 794 510 683 522 662 477 l 646 434 b 633 474 604 502 554 508 b 349 531 254 142 458 127 b 516 123 569 164 605 220 b 614 119 687 109 719 107 b 857 97 952 249 971 401 b 998 627 861 757 637 768 b -9 800 -227 -194 451 -223 b 710 -235 899 -69 936 185 b 934 199 913 208 900 190 b 873 -1 752 -147 559 -181 b -64 -240 169 816 716 721 z m 502 169 b 414 147 497 495 585 462 b 673 415 586 194 502 169 z"},".":{"x_min":0,"x_max":237,"ha":237,"o":"m 127 120 b 93 120 60 93 55 60 b 49 28 73 1 107 1 b 142 1 174 28 179 60 b 185 93 162 120 127 120 z"},"p":{"x_min":0,"x_max":510,"ha":510,"o":"m 191 348 b 193 408 87 411 70 364 b 35 258 16 137 -18 38 b -62 -9 -350 -366 -148 -380 b -17 -384 85 -69 144 155 b 160 196 227 342 296 344 b 359 346 300 147 270 108 b 255 114 240 118 226 120 b 127 133 108 -2 219 -1 b 267 0 307 16 340 40 b 417 9 502 -4 551 97 b 552 114 532 123 519 113 b 482 38 427 48 370 68 b 460 159 488 403 329 396 b 268 394 217 347 177 293 z m -172 -335 b -234 -325 -105 -101 -37 -28 b -53 -85 -124 -342 -172 -335 z m 186 44 b 165 62 191 88 221 84 b 229 83 238 81 247 78 b 228 58 208 36 186 44 z"},"X":{"x_min":0,"x_max":807,"ha":807,"o":"m 885 783 b 893 836 778 876 749 818 b 739 726 687 559 611 389 b 548 600 479 787 286 780 b 101 774 42 524 205 453 b 224 448 236 475 219 486 b 80 546 162 754 282 740 b 430 723 452 464 528 218 b 413 4 269 -179 135 -183 b -15 -186 6 84 205 80 b 223 85 223 109 205 116 b -54 121 -62 -237 149 -225 b 295 -215 442 -69 566 113 b 649 -92 794 -259 1120 -221 b 1138 -211 1128 -185 1114 -185 b 825 -213 727 12 652 251 b 773 461 861 681 885 783 z"},"*":{"x_min":0,"x_max":393,"ha":393,"o":"m 49 678 b 9 666 16 625 34 606 l 119 606 l 78 550 b 64 511 101 492 127 495 l 182 570 l 215 499 b 243 468 278 492 287 516 l 245 606 l 322 606 b 379 614 360 668 341 678 l 261 678 l 297 727 b 324 778 269 795 250 785 l 196 712 l 166 776 b 134 825 94 785 93 764 l 132 678 l 49 678 z"},"Y":{"x_min":0,"x_max":728,"ha":728,"o":"m 582 5 b 653 230 739 522 790 677 b 791 729 700 757 665 680 b 617 539 590 447 544 305 b 437 105 336 37 251 32 b 72 21 604 778 155 776 b 12 776 -78 528 95 453 b 114 448 125 475 109 486 b -32 547 57 740 151 740 b 433 739 -140 -37 252 1 b 346 10 421 53 511 192 b 493 127 471 53 443 -8 b 394 -13 330 -23 268 -40 b -10 -121 12 -367 206 -367 b 395 -367 503 -187 567 -32 b 710 -14 741 42 769 97 b 770 112 752 124 737 113 b 709 58 673 18 582 5 z m 169 -319 b 43 -312 79 -134 271 -77 b 327 -60 385 -51 426 -46 b 385 -135 280 -326 169 -319 z"},"c":{"x_min":0,"x_max":281,"ha":281,"o":"m 194 296 b 197 285 209 273 231 285 b 256 325 240 388 185 390 b -17 400 -124 -13 172 0 b 240 3 296 40 322 97 b 324 110 306 125 290 113 b 265 62 221 39 180 37 b 64 28 118 347 197 343 b 216 342 203 304 194 296 z"},"!":{"x_min":0,"x_max":410,"ha":410,"o":"m 391 725 b 401 785 279 791 270 750 b 218 483 169 213 109 -52 b 96 -107 184 -95 193 -85 b 257 184 334 456 391 725 z m 145 -137 b 119 -137 95 -157 91 -182 b 86 -207 104 -227 130 -227 b 156 -227 180 -207 185 -182 b 189 -157 171 -137 145 -137 z"},"/":{"x_min":0,"x_max":587,"ha":587,"o":"m 132 -123 b 126 -177 168 -198 209 -202 b 302 30 468 441 562 673 b 583 754 520 763 487 756 l 132 -123 z"},"[":{"x_min":0,"x_max":383,"ha":383,"o":"m 18 -241 b 71 -242 126 -242 180 -242 b 189 -234 196 -216 180 -206 b 157 -206 143 -206 126 -205 b 132 -8 264 598 337 757 b 356 756 376 755 395 755 b 408 766 409 784 395 791 b 356 791 275 794 237 793 l 221 785 b 152 665 -10 -55 0 -224 l 18 -241 z"},"6":{"x_min":0,"x_max":697,"ha":697,"o":"m 420 720 b 438 758 374 799 337 773 b 171 639 45 360 10 153 b -21 -29 11 -230 241 -233 b 614 -237 716 352 414 388 b 307 401 221 350 179 251 b 175 231 197 222 212 237 b 248 321 318 363 409 353 b 626 323 502 -187 273 -192 b 125 -195 112 6 133 139 b 165 335 275 583 420 720 z"},"r":{"x_min":0,"x_max":324,"ha":324,"o":"m 281 316 b 273 358 117 426 77 447 b 59 456 49 438 41 426 b 93 364 40 160 0 97 b -5 78 21 71 33 82 b 78 160 116 317 90 401 l 173 358 b 133 296 37 2 238 0 b 308 -1 336 40 365 97 b 367 110 349 125 333 113 b 317 83 292 38 251 37 b 181 34 268 270 281 316 z"},"2":{"x_min":0,"x_max":738,"ha":738,"o":"m 116 35 b -42 20 -39 -223 126 -223 b 210 -223 293 -182 369 -117 b 447 -177 519 -233 664 -220 b 691 -219 721 -124 669 -117 b 595 -115 512 -88 431 -57 b 552 77 653 282 664 462 b 676 656 577 784 377 776 b 185 768 101 620 108 443 b 114 429 137 431 144 444 b 138 580 189 707 335 735 b 496 747 547 608 540 470 b 531 305 431 108 327 -16 b 248 15 174 40 116 35 z m 88 -166 b 5 -162 23 -16 114 -5 b 167 1 243 -33 287 -60 b 221 -127 150 -169 88 -166 z"},"{":{"x_min":0,"x_max":334,"ha":334,"o":"m 97 267 b 288 334 202 756 376 759 b 390 764 391 789 376 795 b 73 795 132 316 28 291 b 10 282 14 266 24 258 b 125 201 -165 -219 157 -245 b 174 -237 173 -215 161 -209 b 7 -161 252 190 97 267 z"},"9":{"x_min":0,"x_max":692,"ha":692,"o":"m 171 -172 b 153 -210 216 -250 254 -225 b 420 -91 546 188 581 396 b 612 577 579 778 350 781 b -23 785 -125 196 177 160 b 284 147 370 199 412 297 b 416 317 393 326 379 311 b 343 227 273 185 181 196 b -35 225 89 735 318 740 b 466 744 478 542 457 409 b 426 213 316 -35 171 -172 z"}," ":{"x_min":0,"x_max":361,"ha":361,"o":""},"I":{"x_min":0,"x_max":560,"ha":560,"o":"m 110 -185 b -29 -133 23 184 289 175 b 311 177 308 211 289 211 b -63 211 -70 -224 142 -227 b 530 -238 499 660 669 743 b 685 754 675 776 657 776 b 346 697 374 -229 110 -185 z"},"H":{"x_min":0,"x_max":929,"ha":929,"o":"m 974 -226 b 989 -224 995 -204 982 -193 b 811 -122 804 46 830 204 b 871 206 948 211 987 214 b 1001 224 1001 242 984 250 l 837 240 b 872 399 1004 750 809 777 b 793 776 786 756 798 747 b 856 710 722 309 708 233 l 481 221 b 525 362 689 779 407 776 b 269 777 193 530 371 453 b 390 448 401 475 385 486 b 243 547 305 745 413 740 b 537 728 395 353 348 215 b -31 196 -94 -210 128 -215 b 331 -221 417 27 469 185 l 702 197 b 672 -13 716 -220 974 -226 z m 96 -173 b -42 -120 81 171 335 178 b 303 85 208 -196 96 -173 z"},"4":{"x_min":0,"x_max":754,"ha":754,"o":"m 643 539 b 626 575 568 595 529 548 b 511 453 485 336 459 222 b 354 219 250 214 145 211 b 219 307 377 519 393 742 b 395 783 282 790 268 758 b 259 548 125 363 3 202 b -4 189 2 175 17 173 b 161 173 306 182 451 186 b 412 21 373 -130 361 -179 b 345 -237 472 -241 489 -204 b 502 -128 620 402 643 539 z"},"~":{"x_min":0,"x_max":983,"ha":983,"o":"m 883 313 b 884 326 868 343 852 330 b 706 111 247 537 174 166 b 170 147 196 140 207 153 b 359 385 707 -75 883 313 z"},"D":{"x_min":0,"x_max":961,"ha":961,"o":"m 112 -173 b -27 -121 21 184 287 175 b 308 177 306 211 287 211 b -66 211 -68 -212 144 -215 b 212 -217 269 -193 314 -150 b 342 -194 394 -226 470 -225 b 980 -214 1053 793 574 777 b 488 774 402 739 354 665 b 317 608 310 536 342 475 b 356 462 377 478 374 492 b 348 541 354 599 384 645 b 419 699 502 740 566 739 b 902 739 805 -183 447 -186 b 395 -187 358 -160 340 -123 b 384 -72 410 -10 431 54 b 452 59 475 61 502 59 b 523 66 519 91 504 95 b 482 96 462 95 444 92 b 511 318 538 612 628 655 b 645 667 634 688 616 689 b 307 610 377 -217 112 -173 z"},"^":{"x_min":0,"x_max":366,"ha":366,"o":"m 224 521 b 238 480 281 489 299 509 l 286 760 b 277 803 247 803 215 787 b 88 615 183 744 56 573 b 42 533 80 513 106 516 l 217 665 l 224 521 z"},"0":{"x_min":0,"x_max":705,"ha":705,"o":"m 336 624 b 380 658 306 672 281 668 b 109 660 23 377 5 240 b -16 77 17 -229 239 -226 b 693 -221 779 778 318 776 b 211 779 127 715 70 629 b 65 611 85 602 100 609 b 150 685 222 742 317 740 b 658 720 608 -63 304 -178 b 141 -213 114 95 129 224 b 143 346 208 576 336 624 z"},"F":{"x_min":0,"x_max":833,"ha":833,"o":"m 375 314 b -46 243 -98 -217 147 -225 b 388 -232 455 112 493 288 b 543 289 594 285 644 278 b 637 242 629 207 621 171 b 615 109 727 112 741 156 b 746 185 767 261 768 289 b 768 319 548 325 500 324 b 532 472 561 602 620 631 b 637 642 626 664 608 664 b 482 632 421 480 375 314 z m 138 -185 b -28 -185 -5 204 364 276 b 307 57 269 -185 138 -185 z m 894 789 b 845 658 326 994 294 546 b 300 526 323 533 329 544 b 393 847 844 545 925 769 b 928 783 901 792 894 789 z"},"`":{"x_min":0,"x_max":280,"ha":280,"o":"m 232 501 b 186 542 155 570 112 615 b 97 643 -21 633 18 582 b 63 537 95 505 143 464 b 177 423 280 458 232 501 z"},"k":{"x_min":0,"x_max":482,"ha":482,"o":"m 195 359 b 239 405 536 761 325 776 b 145 782 30 209 -12 48 b -14 -12 90 -15 107 32 b 123 80 135 131 147 181 b 306 185 199 -13 405 1 b 466 2 496 43 523 97 b 524 112 506 124 491 113 b 476 85 454 45 419 38 b 357 48 448 179 272 209 b 433 263 485 396 309 396 b 259 397 220 370 186 331 z m 350 731 b 416 721 282 497 213 424 b 230 481 299 738 350 731 z m 157 221 b 165 260 258 368 295 360 b 323 347 235 237 157 221 z"},"u":{"x_min":0,"x_max":455,"ha":455,"o":"m 412 347 b 414 407 303 412 286 365 b 272 322 262 284 255 251 b 224 152 179 37 134 37 b 47 34 150 310 163 347 b 166 407 54 412 37 365 b -77 12 71 -1 121 0 b 178 1 215 52 245 119 b 256 5 335 0 369 0 b 439 0 467 40 496 97 b 498 112 479 124 464 113 b 448 83 423 38 382 37 b 296 34 398 310 412 347 z"},"]":{"x_min":0,"x_max":502,"ha":502,"o":"m 436 793 b 383 794 328 794 274 794 b 265 786 258 768 274 758 b 297 758 311 758 328 757 b 322 560 190 -46 117 -205 b 98 -204 78 -203 59 -203 b 46 -214 45 -232 59 -239 b 98 -239 179 -242 217 -241 l 233 -233 b 302 -113 464 607 454 776 z"},"U":{"x_min":0,"x_max":809,"ha":809,"o":"m 862 682 b 842 718 772 744 741 682 b 642 396 451 -189 165 -196 b 87 -191 277 289 289 330 b 334 485 419 777 155 776 b 12 776 -78 528 95 453 b 114 448 125 475 109 486 b -32 547 57 740 151 740 b 291 740 188 427 169 362 b 135 242 -57 -201 157 -227 b 336 -233 483 -27 583 173 b 535 11 483 -195 719 -227 b 737 -224 739 -201 726 -192 b 600 -153 691 99 716 188 b 730 236 829 556 862 682 z"},"o":{"x_min":0,"x_max":363,"ha":363,"o":"m 125 372 b 109 385 77 400 59 378 b -34 264 -54 -1 133 -1 b 223 -1 283 82 306 161 b 356 161 398 168 421 179 b 431 190 428 210 406 211 b 388 203 355 198 314 197 b 328 285 301 390 194 394 b 166 395 143 386 125 372 z m 160 352 b 169 356 180 359 193 358 b 277 355 289 264 278 198 b 224 202 156 222 135 279 b 142 296 150 313 160 330 b 164 336 164 345 160 352 z m 269 163 b 258 128 208 38 167 44 b 107 52 113 186 122 231 b 158 186 213 168 269 163 z"},"N":{"x_min":0,"x_max":927,"ha":927,"o":"m 413 740 b 510 723 441 484 357 243 b 279 19 188 -199 111 -185 b -29 -133 23 184 289 175 b 311 177 308 211 289 211 b -61 211 -72 -224 142 -227 b 233 -221 295 -175 341 -104 b 464 86 745 728 864 719 b 898 716 750 342 714 220 b 666 53 577 -191 836 -227 b 854 -224 856 -201 844 -192 b 718 -153 809 99 834 188 b 864 293 1056 780 905 776 b 729 761 543 317 476 213 b 528 357 668 783 407 776 b 270 777 193 530 371 453 b 390 448 402 475 385 486 b 244 547 306 745 413 740 z"},"+":{"x_min":0,"x_max":638,"ha":638,"o":"m 370 201 l 539 201 b 622 212 607 279 588 307 l 391 307 l 430 499 b 405 523 343 550 316 471 l 283 307 l 104 307 b 52 293 48 241 59 201 l 262 201 l 222 1 b 259 -18 311 -24 335 24 z"},"G":{"x_min":0,"x_max":775,"ha":775,"o":"m 760 513 b 734 552 665 577 629 502 b 569 381 401 56 230 67 b -23 85 205 753 495 741 b 686 732 628 457 442 499 b 422 495 418 471 434 464 b 678 413 758 776 470 780 b 42 784 -198 41 210 23 b 379 16 519 221 599 366 b 584 292 569 218 549 144 b 535 93 518 41 498 -11 b 450 -17 386 -28 324 -48 b 48 -136 78 -381 272 -376 b 461 -371 563 -188 623 -31 b 753 -14 786 38 816 97 b 817 112 798 124 784 113 b 765 78 739 25 636 7 b 649 42 660 78 669 113 b 706 246 728 380 760 513 z m 233 -330 b 107 -326 137 -147 328 -84 b 383 -66 441 -55 482 -49 b 444 -139 344 -333 233 -330 z"},"q":{"x_min":0,"x_max":477,"ha":477,"o":"m 186 388 b -20 396 -87 1 118 1 b 160 1 197 24 226 58 b 183 -149 169 -378 328 -379 b 470 -374 440 -108 349 -29 b 429 -14 482 23 518 97 b 520 112 501 125 486 113 b 453 49 413 21 346 7 b 373 147 416 294 432 347 b 432 413 317 406 306 365 b 303 351 297 330 289 305 b 276 352 243 386 186 388 z m 159 46 b 73 18 131 371 220 344 b 312 304 241 77 159 46 z m 334 -63 b 389 -120 417 -332 348 -332 b 293 -332 326 -113 334 -63 z"},"d":{"x_min":0,"x_max":462,"ha":462,"o":"m 388 37 b 315 35 402 296 420 359 b 464 405 761 761 550 776 b 465 779 334 539 282 325 b 266 361 235 386 186 388 b -20 396 -87 1 118 1 b 180 1 231 51 263 114 b 273 45 307 -1 375 0 b 446 1 474 40 503 97 b 505 110 487 125 471 113 b 454 81 429 38 388 37 z m 159 46 b 73 18 131 371 220 344 b 312 304 241 77 159 46 z m 575 731 b 641 721 507 497 438 424 b 455 481 524 738 575 731 z"},"1":{"x_min":0,"x_max":320,"ha":320,"o":"m 1 599 b -5 581 21 571 33 584 b 55 629 123 746 183 742 b 234 739 34 -53 1 -179 b -15 -237 107 -241 123 -204 b 143 -89 421 776 183 776 b 103 776 31 661 1 599 z"},"5":{"x_min":0,"x_max":697,"ha":697,"o":"m 183 657 b 199 713 549 477 612 756 b 611 771 600 779 582 773 b 454 647 169 852 148 740 b 140 622 138 532 107 412 b 102 395 114 383 130 390 b 610 506 481 -267 150 -181 b -61 -113 47 230 261 208 b 277 211 278 239 265 244 b -20 273 -134 -221 224 -228 b 700 -238 692 565 149 433 b 164 501 178 587 183 657 z"}}}
